<?xml version="1.0" encoding="UTF-8" standalone="no"?>
<!-- Generator: Adobe Illustrator 16.0.0, SVG Export Plug-In . SVG Version: 6.00 Build 0)  -->

<svg
   xmlns:dc="http://purl.org/dc/elements/1.1/"
   xmlns:cc="http://creativecommons.org/ns#"
   xmlns:rdf="http://www.w3.org/1999/02/22-rdf-syntax-ns#"
   xmlns:svg="http://www.w3.org/2000/svg"
   xmlns="http://www.w3.org/2000/svg"
   xmlns:sodipodi="http://sodipodi.sourceforge.net/DTD/sodipodi-0.dtd"
   xmlns:inkscape="http://www.inkscape.org/namespaces/inkscape"
   version="1.1"
   id="Layer_1"
   x="0px"
   y="0px"
   width="32"
   height="32"
   viewBox="0 0 32.000001 31.999999"
   enable-background="new 0 0 566.93 425.2"
   xml:space="preserve"
   inkscape:version="0.91 r13725"
   sodipodi:docname="facebook.svg"><metadata
     id="metadata9"><rdf:RDF><cc:Work
         rdf:about=""><dc:format>image/svg+xml</dc:format><dc:type
           rdf:resource="http://purl.org/dc/dcmitype/StillImage" /><dc:title /></cc:Work></rdf:RDF></metadata><defs
     id="defs7" /><sodipodi:namedview
     pagecolor="#ffffff"
     bordercolor="#666666"
     borderopacity="1"
     objecttolerance="10"
     gridtolerance="10"
     guidetolerance="10"
     inkscape:pageopacity="0"
     inkscape:pageshadow="2"
     inkscape:window-width="1536"
     inkscape:window-height="801"
     id="namedview5"
     showgrid="false"
     inkscape:zoom="11.49471"
     inkscape:cx="11.487757"
     inkscape:cy="18.954168"
     inkscape:window-x="-8"
     inkscape:window-y="-8"
     inkscape:window-maximized="1"
     inkscape:current-layer="Layer_1"
     fit-margin-top="0"
     fit-margin-left="0"
     fit-margin-right="0"
     fit-margin-bottom="0"
     inkscape:snap-bbox="true"
     inkscape:bbox-paths="true"
     inkscape:bbox-nodes="true"
     inkscape:snap-bbox-edge-midpoints="true"
     inkscape:snap-bbox-midpoints="true"
     inkscape:snap-page="true" /><path
     stroke-miterlimit="10"
     d="m 0.62946645,15.972265 c 0,-4.480794 0,-8.9632046 0.001617,-13.4456152 0,-1.2224757 0.67592185,-1.90162879 1.89516815,-1.90162879 8.9777924,0 17.9572034,0 26.9366134,0 1.228949,0 1.908105,0.67268499 1.908105,1.88707549 0,8.9939285 0,17.9878565 0,26.9817845 0,1.188518 -0.685625,1.870905 -1.878998,1.870905 -2.359258,0.0032 -4.718516,-0.0065 -7.077774,0.0097 -0.375153,0.0032 -0.514218,-0.07277 -0.510984,-0.483493 0.01617,-3.636703 0.01617,-7.273406 0,-10.908493 -0.0032,-0.407491 0.129363,-0.496429 0.50775,-0.488343 1.039755,0.02425 2.077893,-0.0048 3.114414,0.01617 0.308854,0.0065 0.426898,-0.118043 0.460856,-0.392938 0.173023,-1.36154 0.347663,-2.724698 0.520686,-4.086238 0.04366,-0.34928 -0.228003,-0.28945 -0.417195,-0.291066 -1.199843,-0.0065 -2.402918,-0.0032 -3.605995,-0.0048 -0.572431,0 -0.580516,-0.0016 -0.572431,-0.590216 0.0194,-1.007411 0.0032,-2.016438 0.09217,-3.017381 0.076,-0.878048 0.68239,-1.3874127 1.587932,-1.4213704 0.858646,-0.032341 1.720527,-0.029107 2.580791,-0.014553 0.370303,0.00485 0.540091,-0.097022 0.533623,-0.5012798 -0.0194,-1.1270708 -0.0065,-2.2557587 -0.0065,-3.3828292 -0.0032,-0.2037459 0.02911,-0.4285132 -0.284598,-0.4543857 -1.974404,-0.1568521 -3.960126,-0.4527688 -5.890869,0.2554909 -1.942062,0.7131105 -3.082074,2.1732898 -3.366672,4.1767911 -0.205364,1.4423921 -0.15847,2.9235931 -0.176257,4.3870061 -0.0065,0.446301 -0.119661,0.590217 -0.575665,0.574046 -0.992862,-0.03396 -1.98734,0 -2.983435,-0.01617 -0.367068,-0.0065 -0.488346,0.124512 -0.483495,0.491578 0.01941,1.275838 0.01617,2.551675 0,3.82913 -0.0032,0.341193 0.08893,0.467322 0.451154,0.460854 1.038138,-0.02426 2.076276,0.0032 3.116032,-0.01617 0.336344,-0.0065 0.468941,0.076 0.468941,0.439833 -0.01294,3.66581 -0.0097,7.33162 0,10.99743 0,0.320172 -0.08247,0.439832 -0.425281,0.438216 -4.734687,-0.0097 -9.4677557,-0.0016 -14.2024421,-0.0097 -1.0219678,-0.0016 -1.71567702,-0.747069 -1.71567702,-1.811076 -0.003234,-4.524453 -0.001617,-9.050524 -0.001617,-13.578211 z"
     id="path3"
     inkscape:connector-curvature="0"
     style="clip-rule:evenodd;fill:none;fill-rule:evenodd;stroke:#eda04b;stroke-width:1.25;stroke-miterlimit:10;stroke-dasharray:none" /></svg>