<?xml version="1.0" encoding="UTF-8" standalone="no"?>
<!-- Generator: Adobe Illustrator 16.0.0, SVG Export Plug-In . SVG Version: 6.00 Build 0)  -->

<svg
   xmlns:dc="http://purl.org/dc/elements/1.1/"
   xmlns:cc="http://creativecommons.org/ns#"
   xmlns:rdf="http://www.w3.org/1999/02/22-rdf-syntax-ns#"
   xmlns:svg="http://www.w3.org/2000/svg"
   xmlns="http://www.w3.org/2000/svg"
   xmlns:sodipodi="http://sodipodi.sourceforge.net/DTD/sodipodi-0.dtd"
   xmlns:inkscape="http://www.inkscape.org/namespaces/inkscape"
   version="1.1"
   id="Layer_1"
   x="0px"
   y="0px"
   width="32"
   height="32"
   viewBox="0 0 32.000001 31.999999"
   enable-background="new 0 0 566.93 425.2"
   xml:space="preserve"
   inkscape:version="0.91 r13725"
   sodipodi:docname="facebook_filled.svg"
   inkscape:export-filename="C:\Users\lmaga\Downloads\icones png\facebook_menu_filled.png"
   inkscape:export-xdpi="720"
   inkscape:export-ydpi="720"><metadata
     id="metadata9"><rdf:RDF><cc:Work
         rdf:about=""><dc:format>image/svg+xml</dc:format><dc:type
           rdf:resource="http://purl.org/dc/dcmitype/StillImage" /><dc:title /></cc:Work></rdf:RDF></metadata><defs
     id="defs7" /><sodipodi:namedview
     pagecolor="#ffffff"
     bordercolor="#666666"
     borderopacity="1"
     objecttolerance="10"
     gridtolerance="10"
     guidetolerance="10"
     inkscape:pageopacity="0"
     inkscape:pageshadow="2"
     inkscape:window-width="1536"
     inkscape:window-height="801"
     id="namedview5"
     showgrid="false"
     inkscape:zoom="8.1279877"
     inkscape:cx="-6.2214003"
     inkscape:cy="4.2395266"
     inkscape:window-x="-8"
     inkscape:window-y="-8"
     inkscape:window-maximized="1"
     inkscape:current-layer="Layer_1"
     fit-margin-top="0"
     fit-margin-left="0"
     fit-margin-right="0"
     fit-margin-bottom="0"
     inkscape:snap-global="true"
     inkscape:snap-bbox="true"
     inkscape:bbox-paths="true"
     inkscape:bbox-nodes="true"
     inkscape:snap-bbox-edge-midpoints="true"
     inkscape:snap-bbox-midpoints="true"
     inkscape:snap-page="true" /><path
     id="path4138"
     d="m 4.2104875e-4,15.971339 c 0,-4.663006 0,-9.3276952 0.001683201,-13.9923834 0,-1.27218785 0.7035834,-1.9789588741551 1.97272675,-1.9789588741551 9.345204,0 18.692091,0 28.038977,0 C 31.293051,-3.2741551e-6 32,0.7000366 32,1.9638105 c 0,9.3596675 0,18.7193355 0,28.0790035 0,1.236849 -0.713682,1.946985 -1.955894,1.946985 -2.455809,0.0034 -4.911617,-0.0067 -7.367427,0.0101 -0.390505,0.0034 -0.535262,-0.07573 -0.531895,-0.503153 0.01683,-3.784591 0.01683,-7.569182 0,-11.352089 -0.0034,-0.424063 0.134657,-0.516616 0.528529,-0.508202 1.082306,0.02524 2.16293,-0.005 3.24187,0.01683 0.321494,0.0067 0.444368,-0.122844 0.479716,-0.408918 0.180103,-1.416908 0.36189,-2.835498 0.541994,-4.252406 0.04545,-0.363482 -0.237333,-0.301219 -0.434269,-0.302902 -1.248945,-0.0067 -2.501256,-0.0034 -3.753566,-0.005 -0.595858,0 -0.604274,-0.0017 -0.595858,-0.614218 0.0202,-1.048377 0.0034,-2.098436 0.09594,-3.140082 0.07911,-0.913754 0.710317,-1.443833 1.652916,-1.4791716 0.893787,-0.033656 1.79094,-0.03029 2.68641,-0.015145 0.385456,0.00505 0.562194,-0.1009673 0.55546,-0.5216644 -0.0202,-1.1729033 -0.0067,-2.3474894 -0.0067,-3.5203923 -0.0034,-0.2120313 0.0303,-0.4459388 -0.296245,-0.4728634 -2.055205,-0.1632305 -4.122192,-0.4711807 -6.131949,0.2658805 -2.02154,0.742109 -3.208206,2.2616667 -3.504452,4.3466413 -0.213768,1.5010479 -0.164954,3.0424819 -0.18347,4.5654049 -0.0067,0.464449 -0.124558,0.614217 -0.599224,0.59739 -1.033493,-0.03534 -2.06867,0 -3.105529,-0.01683 -0.38209,-0.0067 -0.508331,0.129574 -0.503281,0.511567 0.02019,1.32772 0.01683,2.65544 0,3.984843 -0.0034,0.355068 0.09257,0.486325 0.469616,0.479594 1.080624,-0.02524 2.161247,0.0034 3.243554,-0.01683 0.350108,-0.0067 0.488131,0.07909 0.488131,0.457719 -0.01346,3.814881 -0.0101,7.629761 0,11.444642 0,0.333192 -0.08584,0.457718 -0.442685,0.456036 -4.92845,-0.0101 -9.8552171,-0.0017 -14.7836678,-0.0101 C 0.72420284,31.98478 0.00210425,31.208986 0.00210425,30.101711 -0.00126217,25.39327 4.21049e-4,20.683146 4.21049e-4,15.971339 Z"
     inkscape:connector-curvature="0"
     style="clip-rule:evenodd;fill:#eda04b;fill-rule:evenodd" /></svg>