<?xml version="1.0" encoding="UTF-8" standalone="no"?>
<!-- Generator: Adobe Illustrator 16.0.0, SVG Export Plug-In . SVG Version: 6.00 Build 0)  -->

<svg
   xmlns:dc="http://purl.org/dc/elements/1.1/"
   xmlns:cc="http://creativecommons.org/ns#"
   xmlns:rdf="http://www.w3.org/1999/02/22-rdf-syntax-ns#"
   xmlns:svg="http://www.w3.org/2000/svg"
   xmlns="http://www.w3.org/2000/svg"
   xmlns:sodipodi="http://sodipodi.sourceforge.net/DTD/sodipodi-0.dtd"
   xmlns:inkscape="http://www.inkscape.org/namespaces/inkscape"
   version="1.1"
   id="Layer_1"
   x="0px"
   y="0px"
   width="32"
   height="32"
   viewBox="0 0 32.000001 31.999998"
   enable-background="new 0 0 566.93 425.2"
   xml:space="preserve"
   inkscape:version="0.91 r13725"
   sodipodi:docname="logout.svg"><metadata
     id="metadata13"><rdf:RDF><cc:Work
         rdf:about=""><dc:format>image/svg+xml</dc:format><dc:type
           rdf:resource="http://purl.org/dc/dcmitype/StillImage" /><dc:title /></cc:Work></rdf:RDF></metadata><defs
     id="defs11" /><sodipodi:namedview
     pagecolor="#ffffff"
     bordercolor="#666666"
     borderopacity="1"
     objecttolerance="10"
     gridtolerance="10"
     guidetolerance="10"
     inkscape:pageopacity="0"
     inkscape:pageshadow="2"
     inkscape:window-width="1536"
     inkscape:window-height="801"
     id="namedview9"
     showgrid="false"
     fit-margin-top="0"
     fit-margin-left="0"
     fit-margin-right="0"
     fit-margin-bottom="0"
     inkscape:zoom="8.1279877"
     inkscape:cx="-5.3778285"
     inkscape:cy="13.922242"
     inkscape:window-x="-8"
     inkscape:window-y="-8"
     inkscape:window-maximized="1"
     inkscape:current-layer="Layer_1" /><g
     id="g3"
     transform="matrix(1.5998418,0,0,1.5972617,-380.23362,-322.30322)"
     style="stroke-width:0.91580737;stroke-miterlimit:4;stroke-dasharray:none;stroke:#eda04b;stroke-opacity:1"><path
       stroke-miterlimit="10"
       d="m 251.412,205.148 0,6.348 c 0,2.028 -1.645,3.674 -3.672,3.674 -2.026,0 -3.672,-1.646 -3.672,-3.674 l 0,-6.413 c -2.912,1.358 -4.93,4.309 -4.93,7.733 0,4.714 3.82,8.534 8.532,8.534 4.712,0 8.533,-3.82 8.533,-8.534 0,-3.368 -1.955,-6.283 -4.791,-7.668 z"
       id="path5"
       inkscape:connector-curvature="0"
       style="fill:none;stroke:#eda04b;stroke-width:0.93834966;stroke-miterlimit:4;stroke-dasharray:none;stroke-opacity:1" /><path
       stroke-miterlimit="10"
       d="m 249.684,211.545 c 0,1.081 -0.875,1.956 -1.955,1.956 l 0,0 c -1.079,0 -1.956,-0.875 -1.956,-1.956 l 0,-7.335 c 0,-1.081 0.877,-1.956 1.956,-1.956 l 0,0 c 1.08,0 1.955,0.875 1.955,1.956 l 0,7.335 z"
       id="path7"
       inkscape:connector-curvature="0"
       style="fill:none;stroke:#eda04b;stroke-width:0.93834966;stroke-miterlimit:4;stroke-dasharray:none;stroke-opacity:1" /></g></svg>