<?xml version="1.0" encoding="UTF-8" standalone="no"?>
<!-- Generator: Adobe Illustrator 16.0.0, SVG Export Plug-In . SVG Version: 6.00 Build 0)  -->

<svg
   xmlns:dc="http://purl.org/dc/elements/1.1/"
   xmlns:cc="http://creativecommons.org/ns#"
   xmlns:rdf="http://www.w3.org/1999/02/22-rdf-syntax-ns#"
   xmlns:svg="http://www.w3.org/2000/svg"
   xmlns="http://www.w3.org/2000/svg"
   xmlns:sodipodi="http://sodipodi.sourceforge.net/DTD/sodipodi-0.dtd"
   xmlns:inkscape="http://www.inkscape.org/namespaces/inkscape"
   version="1.1"
   id="Layer_1"
   x="0px"
   y="0px"
   width="32"
   height="32"
   viewBox="0 0 32 32"
   enable-background="new 0 0 566.93 425.2"
   xml:space="preserve"
   inkscape:version="0.91 r13725"
   sodipodi:docname="logout_filled.svg"><metadata
     id="metadata13"><rdf:RDF><cc:Work
         rdf:about=""><dc:format>image/svg+xml</dc:format><dc:type
           rdf:resource="http://purl.org/dc/dcmitype/StillImage" /><dc:title></dc:title></cc:Work></rdf:RDF></metadata><defs
     id="defs11" /><sodipodi:namedview
     pagecolor="#ffffff"
     bordercolor="#666666"
     borderopacity="1"
     objecttolerance="10"
     gridtolerance="10"
     guidetolerance="10"
     inkscape:pageopacity="0"
     inkscape:pageshadow="2"
     inkscape:window-width="1536"
     inkscape:window-height="801"
     id="namedview9"
     showgrid="false"
     fit-margin-top="0"
     fit-margin-left="0"
     fit-margin-right="0"
     fit-margin-bottom="0"
     inkscape:zoom="5.7473552"
     inkscape:cx="21.07623"
     inkscape:cy="10.048689"
     inkscape:window-x="-8"
     inkscape:window-y="-8"
     inkscape:window-maximized="1"
     inkscape:current-layer="Layer_1" /><g
     id="g3"
     transform="matrix(1.6756559,0,0,1.6756559,-399.77044,-340.27544)"><path
       d="m 251.867,205.965 0,6.348 c 0,2.028 -1.645,3.674 -3.674,3.674 -2.026,0 -3.671,-1.646 -3.671,-3.674 l 0,-6.413 c -2.912,1.358 -4.93,4.309 -4.93,7.733 0,4.714 3.82,8.534 8.533,8.534 4.711,0 8.531,-3.82 8.531,-8.534 0,-3.368 -1.953,-6.283 -4.789,-7.668 z"
       id="path5"
       inkscape:connector-curvature="0"
       style="fill:#eda04b" /><path
       d="m 250.139,212.361 c 0,1.081 -0.875,1.956 -1.955,1.956 l 0,0 c -1.08,0 -1.957,-0.875 -1.957,-1.956 l 0,-7.335 c 0,-1.081 0.877,-1.956 1.957,-1.956 l 0,0 c 1.08,0 1.955,0.875 1.955,1.956 l 0,7.335 z"
       id="path7"
       inkscape:connector-curvature="0"
       style="fill:#eda04b" /></g></svg>