<?xml version="1.0" encoding="UTF-8" standalone="no"?>
<!-- Generator: Adobe Illustrator 16.0.0, SVG Export Plug-In . SVG Version: 6.00 Build 0)  -->

<svg
   xmlns:dc="http://purl.org/dc/elements/1.1/"
   xmlns:cc="http://creativecommons.org/ns#"
   xmlns:rdf="http://www.w3.org/1999/02/22-rdf-syntax-ns#"
   xmlns:svg="http://www.w3.org/2000/svg"
   xmlns="http://www.w3.org/2000/svg"
   xmlns:sodipodi="http://sodipodi.sourceforge.net/DTD/sodipodi-0.dtd"
   xmlns:inkscape="http://www.inkscape.org/namespaces/inkscape"
   version="1.1"
   id="Layer_1"
   x="0px"
   y="0px"
   width="32"
   height="32"
   viewBox="0 0 32 31.999999"
   enable-background="new 0 0 566.93 425.2"
   xml:space="preserve"
   inkscape:version="0.91 r13725"
   sodipodi:docname="new_profile.svg"><metadata
     id="metadata13"><rdf:RDF><cc:Work
         rdf:about=""><dc:format>image/svg+xml</dc:format><dc:type
           rdf:resource="http://purl.org/dc/dcmitype/StillImage" /><dc:title></dc:title></cc:Work></rdf:RDF></metadata><defs
     id="defs11" /><sodipodi:namedview
     pagecolor="#ffffff"
     bordercolor="#666666"
     borderopacity="1"
     objecttolerance="10"
     gridtolerance="10"
     guidetolerance="10"
     inkscape:pageopacity="0"
     inkscape:pageshadow="2"
     inkscape:window-width="1536"
     inkscape:window-height="801"
     id="namedview9"
     showgrid="false"
     fit-margin-top="0"
     fit-margin-left="0"
     fit-margin-right="0"
     fit-margin-bottom="0"
     inkscape:zoom="11.49471"
     inkscape:cx="14.708195"
     inkscape:cy="14.657455"
     inkscape:window-x="-8"
     inkscape:window-y="-8"
     inkscape:window-maximized="1"
     inkscape:current-layer="g3341" /><g
     id="g3341"
     transform="matrix(1.5734619,0,0,1.5837751,-373.09028,-320.39864)"
     style="stroke-width:0.94254458;stroke-miterlimit:4;stroke-dasharray:none"><path
       id="path3"
       d="m 248.961,211.449 c 0.268,0.059 0.338,0.227 0.354,0.499 0.145,2.513 0.311,5.026 0.463,7.54 0.045,0.738 0.127,2.053 0.135,2.219 0.006,0.164 -0.053,0.322 -0.258,0.322 -0.207,0 -11.176,0.003 -11.284,0 -0.131,-0.005 -0.238,-0.125 -0.225,-0.322 0.01,-0.138 0.277,-4.488 0.414,-6.732 0.064,-1.026 0.109,-2.056 0.188,-3.08 0.012,-0.147 0.156,-0.377 0.279,-0.407 0.912,-0.229 2.898,-0.625 5.336,-0.624 2.435,0.001 3.729,0.394 4.598,0.585 z m -4.928,-1.59 c 1.969,-0.017 3.555,-1.573 3.527,-3.533 -0.029,-2.031 -1.502,-3.524 -3.557,-3.55 -1.953,-0.024 -3.555,1.593 -3.527,3.539 0.031,2.065 1.574,3.527 3.557,3.544 z"
       stroke-miterlimit="10"
       inkscape:connector-curvature="0"
       style="clip-rule:evenodd;fill:none;fill-rule:evenodd;stroke:#eda04b;stroke-width:0.950203;stroke-miterlimit:4;stroke-dasharray:none" /><g
       id="g4146"
       style="stroke-width:1.26693731;stroke-miterlimit:4;stroke-dasharray:none"><line
         style="clip-rule:evenodd;fill:none;fill-rule:evenodd;stroke:#eda04b;stroke-width:1.26693731;stroke-miterlimit:4;stroke-dasharray:none"
         stroke-miterlimit="10"
         x1="253.84599"
         y1="204.80499"
         x2="253.84599"
         y2="210.90601"
         id="line5" /><line
         style="clip-rule:evenodd;fill:none;fill-rule:evenodd;stroke:#eda04b;stroke-width:1.26693731;stroke-miterlimit:4;stroke-dasharray:none"
         stroke-miterlimit="10"
         x1="256.896"
         y1="207.855"
         x2="250.795"
         y2="207.855"
         id="line7" /></g></g></svg>