<?xml version="1.0" encoding="UTF-8" standalone="no"?>
<!-- Generator: Adobe Illustrator 16.0.0, SVG Export Plug-In . SVG Version: 6.00 Build 0)  -->

<svg
   xmlns:dc="http://purl.org/dc/elements/1.1/"
   xmlns:cc="http://creativecommons.org/ns#"
   xmlns:rdf="http://www.w3.org/1999/02/22-rdf-syntax-ns#"
   xmlns:svg="http://www.w3.org/2000/svg"
   xmlns="http://www.w3.org/2000/svg"
   xmlns:sodipodi="http://sodipodi.sourceforge.net/DTD/sodipodi-0.dtd"
   xmlns:inkscape="http://www.inkscape.org/namespaces/inkscape"
   version="1.1"
   id="Layer_1"
   x="0px"
   y="0px"
   width="32"
   height="32"
   viewBox="0 0 31.999999 32"
   enable-background="new 0 0 1190.55 841.89"
   xml:space="preserve"
   inkscape:version="0.91 r13725"
   sodipodi:docname="outlook.svg"><metadata
     id="metadata13"><rdf:RDF><cc:Work
         rdf:about=""><dc:format>image/svg+xml</dc:format><dc:type
           rdf:resource="http://purl.org/dc/dcmitype/StillImage" /><dc:title /></cc:Work></rdf:RDF></metadata><defs
     id="defs11" /><sodipodi:namedview
     pagecolor="#ffffff"
     bordercolor="#666666"
     borderopacity="1"
     objecttolerance="10"
     gridtolerance="10"
     guidetolerance="10"
     inkscape:pageopacity="0"
     inkscape:pageshadow="2"
     inkscape:window-width="1536"
     inkscape:window-height="801"
     id="namedview9"
     showgrid="false"
     inkscape:zoom="5.473685"
     inkscape:cx="14.104829"
     inkscape:cy="7.2858258"
     inkscape:window-x="-8"
     inkscape:window-y="-8"
     inkscape:window-maximized="1"
     inkscape:current-layer="Layer_1"
     fit-margin-top="0"
     fit-margin-left="0"
     fit-margin-right="0"
     fit-margin-bottom="0" /><g
     id="g4713"
     transform="matrix(1.0179936,0,0,1.0180141,-0.2856318,-0.30645037)"><path
       id="path3"
       d="m 1.7724464,4.5120192 c 0.082438,-0.020969 0.161878,-0.043436 0.2443159,-0.06141 5.7032021,-1.096396 11.4004087,-2.2122629 17.1126047,-3.3071607 0.01498,0.041939 0.02998,0.068899 0.03148,0.097357 0.0045,0.076388 0.003,0.1557721 0.003,0.2321603 0,9.7282632 0,19.4580252 -0.0015,29.1862882 0,0.106345 0.01949,0.217182 -0.02399,0.326523 -0.136397,0.02696 -0.262303,-0.02845 -0.389706,-0.05392 -0.8754,-0.176741 -1.747743,-0.36247 -2.623084,-0.546701 -0.774915,-0.16326 -1.549831,-0.329517 -2.324748,-0.492778 C 13.040955,29.732111 12.279528,29.574842 11.5211,29.416074 10.798645,29.263297 10.077688,29.109023 9.355232,28.956247 8.4589074,28.767523 7.562583,28.578799 6.6647595,28.391573 6.011252,28.253775 5.3577445,28.118973 4.704237,27.984169 3.7599486,27.787956 2.818658,27.593242 1.8743696,27.397028 c -0.035973,-0.009 -0.070447,-0.02696 -0.1079187,-0.04044 -0.006,-0.03445 -0.014989,-0.06441 -0.014989,-0.09436 0,-7.559438 0,-15.118875 0.0015,-22.6783119 0,-0.022467 0.010492,-0.044934 0.019485,-0.071894 z M 14.491861,15.971748 c -0.009,-0.630577 -0.05696,-1.265648 -0.215837,-1.887238 -0.188858,-0.739917 -0.502122,-1.418424 -0.998248,-2.005565 -0.388207,-0.461324 -0.852857,-0.81331 -1.423927,-1.01851 -0.687982,-0.242644 -1.386455,-0.256124 -2.0924231,-0.101851 -0.6984737,0.149781 -1.2800354,0.510753 -1.7596739,1.033488 -0.5455889,0.59463 -0.9023201,1.297102 -1.1181574,2.072967 -0.1333994,0.47181 -0.2053453,0.955602 -0.242817,1.445385 -0.071946,0.921152 -0.00749,1.831819 0.2518103,2.723015 0.1918554,0.663528 0.508117,1.267145 0.9637736,1.792876 0.3882075,0.447844 0.8468618,0.795336 1.4089383,1.000536 0.3822119,0.140794 0.7764152,0.211191 1.1856062,0.218679 0.439169,0.009 0.866347,-0.05541 1.280035,-0.199208 0.57107,-0.199209 1.046212,-0.540708 1.444912,-0.993046 0.508117,-0.575159 0.843864,-1.243181 1.050708,-1.978605 0.194854,-0.684498 0.256307,-1.385473 0.2653,-2.102923 z"
       stroke-miterlimit="10"
       inkscape:connector-curvature="0"
       style="clip-rule:evenodd;fill:none;fill-rule:evenodd;stroke:#eda04b;stroke-width:1.47347188;stroke-miterlimit:10;stroke-dasharray:none" /><path
       id="path5"
       d="m 30.033649,11.16678 c 0.05096,-0.03146 0.107918,0.0704 0.200849,0.01497 0.003,0.131807 0.0045,0.09137 0.0045,0.181235 0,3.103459 0,6.208414 0,9.311873 0,0.387933 0.0015,0.777363 -0.0015,1.163797 -0.0015,0.236654 -0.03897,0.465818 -0.125906,0.684498 -0.181363,0.465818 -0.524605,0.742913 -0.999746,0.862738 -0.125906,0.03146 -0.259305,0.03745 -0.391206,0.04942 -0.08543,0.0075 -0.17237,0.003 -0.257805,0.003 -2.996242,0 -5.993983,0 -8.990225,0 -0.09293,0 -0.182863,-0.0045 -0.287783,-0.0059 -0.0075,-0.05541 -0.01499,-0.09886 -0.01799,-0.14379 -0.003,-0.05541 0,-0.109339 0,-0.16326 0,-2.442926 0,-4.88585 0,-7.328776 0,-0.08537 0,-0.169252 0,-0.278592 0.05846,0.02696 0.09893,0.03594 0.133399,0.05991"
       stroke-miterlimit="10"
       inkscape:connector-curvature="0"
       style="clip-rule:evenodd;fill:none;fill-rule:evenodd;stroke:#eda04b;stroke-width:1.47347188;stroke-miterlimit:10;stroke-dasharray:none" /><path
       id="path7"
       d="m 19.172833,14.975015 c 0,-1.948648 0,-3.882318 0,-5.8324638 0.116912,-0.0045 0.208344,-0.00749 0.299774,-0.00749 1.977011,-0.0015 3.954021,-0.0015 5.931031,-0.0015 1.20659,0 2.413181,0.013481 3.619772,-0.00599 0.512614,-0.00749 0.860351,0.3310157 1.10167,0.7324272 0.115413,0.1902216 0.113914,0.4852896 0.104921,0.7099616 -0.166375,0.112335 -0.340244,0.23216 -0.512614,0.348989 -2.645507,1.780893 -5.289514,3.340112 -7.93502,5.122504 -0.08394,0.05541 -0.169372,0.107842 -0.253309,0.166257 -0.128903,0.09286 -0.256307,0.09286 -0.389707,0.009 -0.2638,-0.166257 -0.527602,-0.331016 -0.791404,-0.495775 -0.322256,-0.203702 -0.644514,-0.405906 -0.96677,-0.60811 -0.06296,-0.03894 -0.127404,-0.08388 -0.208344,-0.137799 z"
       stroke-miterlimit="10"
       inkscape:connector-curvature="0"
       style="clip-rule:evenodd;fill:none;fill-rule:evenodd;stroke:#eda04b;stroke-width:1.47347188;stroke-miterlimit:10;stroke-dasharray:none" /></g></svg>