<?xml version="1.0" encoding="UTF-8" standalone="no"?>
<!-- Generator: Adobe Illustrator 16.0.0, SVG Export Plug-In . SVG Version: 6.00 Build 0)  -->

<svg
   xmlns:dc="http://purl.org/dc/elements/1.1/"
   xmlns:cc="http://creativecommons.org/ns#"
   xmlns:rdf="http://www.w3.org/1999/02/22-rdf-syntax-ns#"
   xmlns:svg="http://www.w3.org/2000/svg"
   xmlns="http://www.w3.org/2000/svg"
   xmlns:sodipodi="http://sodipodi.sourceforge.net/DTD/sodipodi-0.dtd"
   xmlns:inkscape="http://www.inkscape.org/namespaces/inkscape"
   version="1.1"
   id="Layer_1"
   x="0px"
   y="0px"
   width="32"
   height="32"
   viewBox="0 0 31.999999 32"
   enable-background="new 0 0 1190.55 841.89"
   xml:space="preserve"
   inkscape:version="0.91 r13725"
   sodipodi:docname="outlook_filled.svg"><metadata
     id="metadata13"><rdf:RDF><cc:Work
         rdf:about=""><dc:format>image/svg+xml</dc:format><dc:type
           rdf:resource="http://purl.org/dc/dcmitype/StillImage" /><dc:title /></cc:Work></rdf:RDF></metadata><defs
     id="defs11" /><sodipodi:namedview
     pagecolor="#ffffff"
     bordercolor="#666666"
     borderopacity="1"
     objecttolerance="10"
     gridtolerance="10"
     guidetolerance="10"
     inkscape:pageopacity="0"
     inkscape:pageshadow="2"
     inkscape:window-width="1536"
     inkscape:window-height="801"
     id="namedview9"
     showgrid="false"
     inkscape:zoom="2.7368425"
     inkscape:cx="-36.637003"
     inkscape:cy="28.087884"
     inkscape:window-x="-8"
     inkscape:window-y="-8"
     inkscape:window-maximized="1"
     inkscape:current-layer="Layer_1"
     fit-margin-top="0"
     fit-margin-left="0"
     fit-margin-right="0"
     fit-margin-bottom="0" /><path
     style="clip-rule:evenodd;fill:#eda04b;fill-rule:evenodd;stroke:#eda04b;stroke-width:1.5;stroke-miterlimit:10;stroke-dasharray:none;fill-opacity:1"
     inkscape:connector-curvature="0"
     stroke-miterlimit="10"
     d="M 1.5187073,4.2868488 C 1.6026286,4.2655021 1.6834981,4.2426303 1.7674193,4.2243325 7.5732426,3.108186 13.372962,1.9722177 19.187941,0.85759633 c 0.01525,0.0426945 0.03052,0.0701401 0.03205,0.0991108 0.0046,0.0777641 0.0031,0.15857817 0.0031,0.23634247 0,9.9035094 0,19.8085444 -0.0015,29.7120524 0,0.108261 0.01984,0.221095 -0.02442,0.332406 -0.138851,0.02745 -0.267023,-0.02896 -0.396718,-0.05489 C 17.909301,31.002693 17.021262,30.813619 16.13017,30.626069 15.341312,30.459868 14.552452,30.290616 13.763592,30.124414 12.990055,29.96126 12.214927,29.801158 11.442852,29.63953 10.70732,29.483999 9.9733901,29.326945 9.2379345,29.171417 8.3254818,28.979294 7.4130293,28.78717 6.4990507,28.596571 5.8337843,28.456291 5.1685178,28.319061 4.5032514,28.181828 3.5419718,27.982081 2.583744,27.783859 1.6224645,27.58411 c -0.03662,-0.0092 -0.071715,-0.02745 -0.1098606,-0.04117 -0.00611,-0.03507 -0.015259,-0.06557 -0.015259,-0.09606 0,-7.695614 0,-15.391228 0.00153,-23.0868411 0,-0.022872 0.010681,-0.045744 0.019836,-0.073189 z M 14.46699,15.953014 c -0.0092,-0.641936 -0.05798,-1.288447 -0.219721,-1.921235 -0.192256,-0.753246 -0.511157,-1.443975 -1.01621,-2.041693 -0.395192,-0.469634 -0.868203,-0.827961 -1.449548,-1.036858 -0.700362,-0.247015 -1.411403,-0.260737 -2.1300737,-0.103685 -0.7110418,0.152479 -1.3030679,0.519953 -1.7913368,1.052105 -0.555406,0.605342 -0.9185561,1.320468 -1.1382771,2.11031 -0.1357997,0.480309 -0.2090402,0.972816 -0.2471861,1.471422 -0.073241,0.937746 -0.00762,1.864818 0.2563413,2.772068 0.1953075,0.67548 0.5172598,1.289971 0.9811153,1.825173 0.3951928,0.455911 0.8620999,0.809663 1.4342902,1.018559 0.3890893,0.143331 0.7903857,0.214996 1.2069399,0.222619 0.447071,0.0092 0.881935,-0.05641 1.303067,-0.202797 0.581346,-0.202797 1.065037,-0.550448 1.470911,-1.010935 0.51726,-0.58552 0.859048,-1.265575 1.069614,-2.014247 0.19836,-0.696829 0.260919,-1.410431 0.270074,-2.140806 z"
     id="path3" /><path
     style="clip-rule:evenodd;fill:#eda04b;fill-rule:evenodd;stroke:#eda04b;stroke-width:1.5;stroke-miterlimit:10;stroke-dasharray:none;fill-opacity:1"
     inkscape:connector-curvature="0"
     stroke-miterlimit="10"
     d="m 30.151412,10.833124 c 0.05188,-0.03203 0.246878,0.300035 0.341482,0.243605 0.0031,0.134181 0.0046,0.09302 0.0046,0.1845 l 0,9.479618 c 0,0.394921 0.0015,0.791366 -0.0015,1.184761 -0.0015,0.240917 -0.03967,0.47421 -0.128172,0.696829 -0.184626,0.474209 -0.534044,0.756296 -1.017735,0.878279 -0.128171,0.03203 -0.263971,0.03813 -0.398245,0.05031 -0.08697,0.0076 -0.175472,0.0031 -0.262444,0.0031 l -9.151991,0 c -0.0946,0 -0.186154,-0.0046 -0.292962,-0.006 -0.0076,-0.05641 -0.01526,-0.10064 -0.01831,-0.14638 -0.0031,-0.05641 0,-0.111308 0,-0.166201 l 0,-7.460797 -0.137019,-0.831688 c 0,0 2.104016,1.252347 2.37378,1.294163 0.273841,0.04245 8.688516,-5.404099 8.688516,-5.404099 z"
     id="path5"
     sodipodi:nodetypes="ccssccccssccsccsc" /><path
     style="clip-rule:evenodd;fill:none;fill-rule:evenodd;stroke:#eda04b;stroke-width:1.5;stroke-miterlimit:10;stroke-dasharray:none"
     inkscape:connector-curvature="0"
     stroke-miterlimit="10"
     d="m 19.232189,14.938326 c 0,-1.983751 0,-3.952254 0,-5.9375303 0.119016,-0.00458 0.212093,-0.00762 0.305169,-0.00762 2.012584,-0.00153 4.025168,-0.00153 6.037751,-0.00153 1.228301,0 2.456603,0.013724 3.684905,-0.0061 0.521838,-0.00762 0.875832,0.3369787 1.121493,0.7456212 0.11749,0.1936483 0.115964,0.4940321 0.106809,0.7227511 -0.169369,0.114359 -0.346366,0.236342 -0.521838,0.355276 -2.693109,1.812974 -5.384691,3.400281 -8.0778,5.214781 -0.08545,0.05641 -0.172419,0.109785 -0.257867,0.169252 -0.131222,0.09453 -0.260918,0.09453 -0.396719,0.0092 -0.268546,-0.169252 -0.537095,-0.336979 -0.805644,-0.504706 -0.328055,-0.207371 -0.656111,-0.413218 -0.984166,-0.619064 -0.06409,-0.03964 -0.129696,-0.08539 -0.212093,-0.140282 z"
     id="path7" /></svg>