<?xml version="1.0" encoding="UTF-8" standalone="no"?>
<!-- Generator: Adobe Illustrator 16.0.0, SVG Export Plug-In . SVG Version: 6.00 Build 0)  -->

<svg
   xmlns:dc="http://purl.org/dc/elements/1.1/"
   xmlns:cc="http://creativecommons.org/ns#"
   xmlns:rdf="http://www.w3.org/1999/02/22-rdf-syntax-ns#"
   xmlns:svg="http://www.w3.org/2000/svg"
   xmlns="http://www.w3.org/2000/svg"
   xmlns:sodipodi="http://sodipodi.sourceforge.net/DTD/sodipodi-0.dtd"
   xmlns:inkscape="http://www.inkscape.org/namespaces/inkscape"
   version="1.1"
   id="Layer_1"
   x="0px"
   y="0px"
   width="32"
   height="32"
   viewBox="0 0 32 31.999998"
   enable-background="new 0 0 566.93 425.2"
   xml:space="preserve"
   inkscape:version="0.91 r13725"
   sodipodi:docname="profiles.svg"
   inkscape:export-filename="C:\Users\lmaga\Downloads\icones png\default.png"
   inkscape:export-xdpi="1440"
   inkscape:export-ydpi="1440"><metadata
     id="metadata9"><rdf:RDF><cc:Work
         rdf:about=""><dc:format>image/svg+xml</dc:format><dc:type
           rdf:resource="http://purl.org/dc/dcmitype/StillImage" /><dc:title></dc:title></cc:Work></rdf:RDF></metadata><defs
     id="defs7" /><sodipodi:namedview
     pagecolor="#ffffff"
     bordercolor="#666666"
     borderopacity="1"
     objecttolerance="10"
     gridtolerance="10"
     guidetolerance="10"
     inkscape:pageopacity="0"
     inkscape:pageshadow="2"
     inkscape:window-width="1536"
     inkscape:window-height="801"
     id="namedview5"
     showgrid="false"
     fit-margin-top="0"
     fit-margin-left="0"
     fit-margin-right="0"
     fit-margin-bottom="0"
     inkscape:zoom="11.49471"
     inkscape:cx="14.635918"
     inkscape:cy="17.111099"
     inkscape:window-x="-8"
     inkscape:window-y="-8"
     inkscape:window-maximized="1"
     inkscape:current-layer="Layer_1" /><path
     stroke-miterlimit="10"
     d="m 23.877218,14.488763 c 0.428111,0.09346 0.539931,0.359576 0.56549,0.790434 0.231627,3.980684 0.4968,7.961368 0.739609,11.943636 0.07188,1.169019 0.202874,3.252028 0.215653,3.514978 0.0096,0.259782 -0.08467,0.510059 -0.412136,0.510059 -0.330668,0 -17.8512635,0.0048 -18.0237862,0 -0.2092628,-0.0079 -0.380188,-0.198004 -0.3594216,-0.510059 0.015976,-0.218598 0.4424883,-7.109157 0.6613356,-10.663735 0.1022356,-1.625222 0.1741203,-3.256779 0.3003165,-4.878833 0.019165,-0.232853 0.2491991,-0.597182 0.4456824,-0.644703 1.4568551,-0.362744 4.6293483,-0.990023 8.5222813,-0.988439 3.891336,0.0016 5.956811,0.624111 7.344976,0.926662 z m -7.872127,-2.518619 c 3.145336,-0.02693 5.678858,-2.4916899 5.63413,-5.5964013 -0.04633,-3.2171786 -2.399338,-5.5821454 -5.682053,-5.6233303 -3.119778,-0.038017 -5.677261,2.5233705 -5.63413,5.6059059 0.05112,3.2710352 2.51595,5.5868967 5.682053,5.6138257 z"
     id="path3"
     inkscape:connector-curvature="0"
     style="clip-rule:evenodd;fill:none;fill-rule:evenodd;stroke:#eda04b;stroke-width:1.5;stroke-miterlimit:10;stroke-dasharray:none" /></svg>