<?xml version="1.0" encoding="UTF-8" standalone="no"?>
<!-- Generator: Adobe Illustrator 16.0.0, SVG Export Plug-In . SVG Version: 6.00 Build 0)  -->

<svg
   xmlns:dc="http://purl.org/dc/elements/1.1/"
   xmlns:cc="http://creativecommons.org/ns#"
   xmlns:rdf="http://www.w3.org/1999/02/22-rdf-syntax-ns#"
   xmlns:svg="http://www.w3.org/2000/svg"
   xmlns="http://www.w3.org/2000/svg"
   xmlns:sodipodi="http://sodipodi.sourceforge.net/DTD/sodipodi-0.dtd"
   xmlns:inkscape="http://www.inkscape.org/namespaces/inkscape"
   version="1.1"
   id="Layer_1"
   x="0px"
   y="0px"
   width="32"
   height="32"
   viewBox="0 0 31.999999 31.999999"
   enable-background="new 0 0 566.93 425.2"
   xml:space="preserve"
   inkscape:version="0.91 r13725"
   sodipodi:docname="profiles_filled.svg"><metadata
     id="metadata9"><rdf:RDF><cc:Work
         rdf:about=""><dc:format>image/svg+xml</dc:format><dc:type
           rdf:resource="http://purl.org/dc/dcmitype/StillImage" /><dc:title></dc:title></cc:Work></rdf:RDF></metadata><defs
     id="defs7" /><sodipodi:namedview
     pagecolor="#ffffff"
     bordercolor="#666666"
     borderopacity="1"
     objecttolerance="10"
     gridtolerance="10"
     guidetolerance="10"
     inkscape:pageopacity="0"
     inkscape:pageshadow="2"
     inkscape:window-width="1536"
     inkscape:window-height="801"
     id="namedview5"
     showgrid="false"
     fit-margin-top="0"
     fit-margin-left="0"
     fit-margin-right="0"
     fit-margin-bottom="0"
     inkscape:zoom="16.255975"
     inkscape:cx="17.727605"
     inkscape:cy="13.559391"
     inkscape:window-x="-8"
     inkscape:window-y="-8"
     inkscape:window-maximized="1"
     inkscape:current-layer="Layer_1" /><path
     d="m 24.19641,14.414446 c 0.4454,0.09805 0.561736,0.377261 0.588327,0.829309 0.240981,4.176457 0.516863,8.352914 0.769478,12.531033 0.07479,1.226512 0.211067,3.411964 0.224362,3.687846 0.01,0.272559 -0.08808,0.535145 -0.42878,0.535145 -0.344022,0 -18.5738506,0.005 -18.7533402,0 -0.2177142,-0.0083 -0.3955419,-0.207742 -0.3739366,-0.535145 0.016619,-0.229347 0.4603576,-7.45879 0.6880434,-11.188184 0.1063642,-1.705152 0.1811516,-3.416951 0.3124449,-5.118778 0.019943,-0.244306 0.2592627,-0.626552 0.4636815,-0.67641 1.5156899,-0.380585 4.816304,-1.038713 8.868116,-1.037051 4.048488,0.0017 6.197377,0.653143 7.641604,0.972235 z M 16.006365,11.77196 c 3.272362,-0.02825 5.9082,-2.6142328 5.863328,-5.8716367 C 21.821493,2.5249219 19.373458,0.04364385 15.958169,4.3384815e-4 12.712399,-0.03945615 10.04997,2.6479049 10.096504,5.882042 c 0.04986,3.4302457 2.614233,5.860003 5.909861,5.889918 z"
     id="path3"
     inkscape:connector-curvature="0"
     style="clip-rule:evenodd;fill:#eda04b;fill-rule:evenodd" /></svg>