<?xml version="1.0" encoding="UTF-8" standalone="no"?>
<!-- Generator: Adobe Illustrator 18.0.0, SVG Export Plug-In . SVG Version: 6.00 Build 0)  -->

<svg
   xmlns:dc="http://purl.org/dc/elements/1.1/"
   xmlns:cc="http://creativecommons.org/ns#"
   xmlns:rdf="http://www.w3.org/1999/02/22-rdf-syntax-ns#"
   xmlns:svg="http://www.w3.org/2000/svg"
   xmlns="http://www.w3.org/2000/svg"
   xmlns:sodipodi="http://sodipodi.sourceforge.net/DTD/sodipodi-0.dtd"
   xmlns:inkscape="http://www.inkscape.org/namespaces/inkscape"
   version="1.1"
   id="Capa_1"
   x="0px"
   y="0px"
   viewBox="0 0 32 32"
   xml:space="preserve"
   inkscape:version="0.91 r13725"
   sodipodi:docname="templates_filled.svg"
   width="32"
   height="32"><metadata
     id="metadata53"><rdf:RDF><cc:Work
         rdf:about=""><dc:format>image/svg+xml</dc:format><dc:type
           rdf:resource="http://purl.org/dc/dcmitype/StillImage" /><dc:title></dc:title></cc:Work></rdf:RDF></metadata><defs
     id="defs51" /><sodipodi:namedview
     pagecolor="#ffffff"
     bordercolor="#666666"
     borderopacity="1"
     objecttolerance="10"
     gridtolerance="10"
     guidetolerance="10"
     inkscape:pageopacity="0"
     inkscape:pageshadow="2"
     inkscape:window-width="1536"
     inkscape:window-height="801"
     id="namedview49"
     showgrid="false"
     inkscape:zoom="8"
     inkscape:cx="8.5699409"
     inkscape:cy="23.127664"
     inkscape:window-x="-8"
     inkscape:window-y="-8"
     inkscape:window-maximized="1"
     inkscape:current-layer="g3" /><g
     id="g3"
     style="stroke:#eda04b;stroke-opacity:1"
     transform="translate(0,-28)"><path
       style="fill:#eda04b;fill-opacity:1;stroke:#eda04b;stroke-width:0.34999999;stroke-miterlimit:4;stroke-dasharray:none;stroke-opacity:1"
       d="m 1.8464646,29.661117 0,29.309383 14.2164444,0 0,0.522322 9.089368,0 0,-13.083769 -0.665027,0 0,-9.419601 -7.37304,0 0,-7.328335 -15.2677454,0 z m 16.3210364,0.739956 0,5.539778 5.575077,0 -5.575077,-5.539778 z"
       id="rect4199"
       inkscape:connector-curvature="0" /><path
       d="m 19.469928,39.866667 -12.9118059,0 c -0.2850926,0 -0.5164722,0.231466 -0.5164722,0.516666 0,0.2852 0.2313796,0.516667 0.5164722,0.516667 l 12.9118059,0 c 0.285092,0 0.516472,-0.231467 0.516472,-0.516667 0,-0.2852 -0.23138,-0.516666 -0.516472,-0.516666 z"
       id="path5"
       style="fill:#ffffff;fill-opacity:1;stroke:#ffffff;stroke-width:0.34999999;stroke-miterlimit:4;stroke-dasharray:none;stroke-opacity:1"
       inkscape:connector-curvature="0" /><path
       d="m 6.5581221,36.766667 5.1647219,0 c 0.285093,0 0.516472,-0.231467 0.516472,-0.516667 0,-0.2852 -0.231379,-0.516667 -0.516472,-0.516667 l -5.1647219,0 c -0.2850926,0 -0.5164722,0.231467 -0.5164722,0.516667 0,0.2852 0.2313796,0.516667 0.5164722,0.516667 z"
       id="path7"
       style="fill:#ffffff;fill-opacity:1;stroke:#ffffff;stroke-width:0.34999999;stroke-miterlimit:4;stroke-dasharray:none;stroke-opacity:1"
       inkscape:connector-curvature="0" /><path
       d="M 19.469928,44 6.5581221,44 c -0.2850926,0 -0.5164722,0.231467 -0.5164722,0.516667 0,0.2852 0.2313796,0.516666 0.5164722,0.516666 l 12.9118059,0 c 0.285092,0 0.516472,-0.231466 0.516472,-0.516666 C 19.9864,44.231467 19.75502,44 19.469928,44 Z"
       id="path9"
       style="fill:#ffffff;fill-opacity:1;stroke:#ffffff;stroke-width:0.34999999;stroke-miterlimit:4;stroke-dasharray:none;stroke-opacity:1"
       inkscape:connector-curvature="0" /><path
       d="m 15.33815,48.133333 -8.7800279,0 c -0.2850926,0 -0.5164722,0.231467 -0.5164722,0.516667 0,0.2852 0.2313796,0.516667 0.5164722,0.516667 l 8.7800279,0 c 0.285093,0 0.516473,-0.231467 0.516473,-0.516667 0,-0.2852 -0.23138,-0.516667 -0.516473,-0.516667 z"
       id="path11"
       style="fill:#ffffff;fill-opacity:1;stroke:#ffffff;stroke-width:0.34999999;stroke-miterlimit:4;stroke-dasharray:none;stroke-opacity:1"
       inkscape:connector-curvature="0" /><path
       d="m 13.788733,53.3 c 0.285093,0 0.516473,-0.231467 0.516473,-0.516667 0,-0.2852 -0.23138,-0.516666 -0.516473,-0.516666 l -7.2306109,0 c -0.2850926,0 -0.5164722,0.231466 -0.5164722,0.516666 0,0.2852 0.2313796,0.516667 0.5164722,0.516667 l 7.2306109,0 z"
       id="path13"
       style="fill:#ffffff;fill-opacity:1;stroke:#ffffff;stroke-width:0.34999999;stroke-miterlimit:4;stroke-dasharray:none;stroke-opacity:1"
       inkscape:connector-curvature="0" /><path
       sodipodi:nodetypes="cccccccccccsccccccccccccccscccc"
       d="m 30.671178,47.700367 -1.47143,-1.4725 c -0.582581,-0.5828 -1.597965,-0.5828 -2.180546,0 l -7.949024,7.9515 -1.095437,4.01915 -0.27115,0.994067 -0.0026,0.01033 0.01033,-0.0026 0.993692,-0.27125 4.017638,-1.09585 7.948508,-7.952017 c 0.29129,-0.2914 0.451913,-0.678384 0.451913,-1.090684 0,-0.4123 -0.160623,-0.799283 -0.451913,-1.090166 z m -10.408465,6.747667 5.290225,-5.292217 2.191391,2.192216 -5.290225,5.292217 z m -0.466375,0.994583 1.663041,1.663667 -2.286422,0.623616 z m 10.144549,-6.291967 -1.466265,1.466817 -2.191393,-2.192217 1.466265,-1.466817 c 0.192128,-0.1922 0.527319,-0.192716 0.719447,0 l 1.471946,1.4725 c 0.09606,0.0961 0.14926,0.223717 0.14926,0.3596 -5.16e-4,0.135884 -0.0532,0.264017 -0.14926,0.360117 z"
       id="path17"
       style="fill:#eda04b;fill-opacity:1;stroke:#eda04b;stroke-width:0.34999999;stroke-miterlimit:4;stroke-dasharray:none;stroke-opacity:1"
       inkscape:connector-curvature="0" /><path
       d="m 1.909872,29.533333 14.977694,0 0,7.233334 7.230612,0 0,9.3 1.032944,0 0,-10.030567 -7.533264,-7.5361 -16.7409305,0 0,31 14.9776955,0 0,-1.033333 -13.944751,0 0,-28.933334 z m 16.010639,0.730567 5.467375,5.469433 -5.467375,0 0,-5.469433 z"
       id="path15"
       style="fill:#eda04b;fill-opacity:1;stroke:#eda04b;stroke-width:0.34999999;stroke-miterlimit:4;stroke-dasharray:none;stroke-opacity:1"
       inkscape:connector-curvature="0" /><path
       style="fill:#ffffff;fill-opacity:1;stroke:#ffffff;stroke-width:0.34999999;stroke-miterlimit:4;stroke-dasharray:none;stroke-opacity:1"
       d="M 25.152344 20.095703 L 19.070312 26.179688 L 17.974609 30.199219 L 17.703125 31.193359 L 17.701172 31.203125 L 17.710938 31.201172 L 18.705078 30.929688 L 22.722656 29.833984 L 25.152344 27.402344 L 25.152344 25.941406 L 22.455078 28.640625 L 20.263672 26.447266 L 25.152344 21.556641 L 25.152344 20.095703 z M 19.796875 27.443359 L 21.458984 29.105469 L 19.173828 29.730469 L 19.796875 27.443359 z "
       transform="translate(0,28)"
       id="path4230" /></g><g
     id="g19"
     transform="translate(0,-28)" /><g
     id="g21"
     transform="translate(0,-28)" /><g
     id="g23"
     transform="translate(0,-28)" /><g
     id="g25"
     transform="translate(0,-28)" /><g
     id="g27"
     transform="translate(0,-28)" /><g
     id="g29"
     transform="translate(0,-28)" /><g
     id="g31"
     transform="translate(0,-28)" /><g
     id="g33"
     transform="translate(0,-28)" /><g
     id="g35"
     transform="translate(0,-28)" /><g
     id="g37"
     transform="translate(0,-28)" /><g
     id="g39"
     transform="translate(0,-28)" /><g
     id="g41"
     transform="translate(0,-28)" /><g
     id="g43"
     transform="translate(0,-28)" /><g
     id="g45"
     transform="translate(0,-28)" /><g
     id="g47"
     transform="translate(0,-28)" /></svg>