<?xml version="1.0" encoding="UTF-8" standalone="no"?>
<!-- Generator: Adobe Illustrator 18.0.0, SVG Export Plug-In . SVG Version: 6.00 Build 0)  -->

<svg
   xmlns:dc="http://purl.org/dc/elements/1.1/"
   xmlns:cc="http://creativecommons.org/ns#"
   xmlns:rdf="http://www.w3.org/1999/02/22-rdf-syntax-ns#"
   xmlns:svg="http://www.w3.org/2000/svg"
   xmlns="http://www.w3.org/2000/svg"
   xmlns:sodipodi="http://sodipodi.sourceforge.net/DTD/sodipodi-0.dtd"
   xmlns:inkscape="http://www.inkscape.org/namespaces/inkscape"
   version="1.1"
   id="Capa_1"
   x="0px"
   y="0px"
   viewBox="0 0 32 32"
   xml:space="preserve"
   inkscape:version="0.91 r13725"
   sodipodi:docname="templates.svg"
   width="32"
   height="32"><metadata
     id="metadata53"><rdf:RDF><cc:Work
         rdf:about=""><dc:format>image/svg+xml</dc:format><dc:type
           rdf:resource="http://purl.org/dc/dcmitype/StillImage" /><dc:title></dc:title></cc:Work></rdf:RDF></metadata><defs
     id="defs51" /><sodipodi:namedview
     pagecolor="#ffffff"
     bordercolor="#666666"
     borderopacity="1"
     objecttolerance="10"
     gridtolerance="10"
     guidetolerance="10"
     inkscape:pageopacity="0"
     inkscape:pageshadow="2"
     inkscape:window-width="1536"
     inkscape:window-height="801"
     id="namedview49"
     showgrid="false"
     inkscape:zoom="11.125147"
     inkscape:cx="11.687383"
     inkscape:cy="17.77846"
     inkscape:window-x="-8"
     inkscape:window-y="-8"
     inkscape:window-maximized="1"
     inkscape:current-layer="g4181" /><g
     id="g3"
     style="stroke:#eda04b;stroke-opacity:1"
     transform="translate(0,-28)"><g
       id="g4181"
       transform="translate(0.1579275,-0.5)"
       style="stroke-width:0.25;stroke-miterlimit:4;stroke-dasharray:none"><g
         id="g4190"
         style="stroke-width:0.35;stroke-miterlimit:4;stroke-dasharray:none"><path
           d="m 19.312001,40.366667 -12.9118064,0 c -0.2850926,0 -0.5164722,0.231466 -0.5164722,0.516666 0,0.2852 0.2313796,0.516667 0.5164722,0.516667 l 12.9118064,0 c 0.285092,0 0.516472,-0.231467 0.516472,-0.516667 0,-0.2852 -0.23138,-0.516666 -0.516472,-0.516666 z"
           id="path5"
           style="fill:#eda04b;fill-opacity:1;stroke:#eda04b;stroke-width:0.35;stroke-opacity:1;stroke-miterlimit:4;stroke-dasharray:none"
           inkscape:connector-curvature="0" /><path
           d="m 6.4001946,37.266667 5.1647224,0 c 0.285093,0 0.516472,-0.231467 0.516472,-0.516667 0,-0.2852 -0.231379,-0.516667 -0.516472,-0.516667 l -5.1647224,0 c -0.2850926,0 -0.5164722,0.231467 -0.5164722,0.516667 0,0.2852 0.2313796,0.516667 0.5164722,0.516667 z"
           id="path7"
           style="fill:#eda04b;fill-opacity:1;stroke:#eda04b;stroke-width:0.35;stroke-opacity:1;stroke-miterlimit:4;stroke-dasharray:none"
           inkscape:connector-curvature="0" /><path
           d="m 19.312001,44.5 -12.9118064,0 c -0.2850926,0 -0.5164722,0.231467 -0.5164722,0.516667 0,0.2852 0.2313796,0.516666 0.5164722,0.516666 l 12.9118064,0 c 0.285092,0 0.516472,-0.231466 0.516472,-0.516666 0,-0.2852 -0.23138,-0.516667 -0.516472,-0.516667 z"
           id="path9"
           style="fill:#eda04b;fill-opacity:1;stroke:#eda04b;stroke-width:0.35;stroke-opacity:1;stroke-miterlimit:4;stroke-dasharray:none"
           inkscape:connector-curvature="0" /><path
           d="m 15.180223,48.633333 -8.7800284,0 c -0.2850926,0 -0.5164722,0.231467 -0.5164722,0.516667 0,0.2852 0.2313796,0.516667 0.5164722,0.516667 l 8.7800284,0 c 0.285092,0 0.516472,-0.231467 0.516472,-0.516667 0,-0.2852 -0.23138,-0.516667 -0.516472,-0.516667 z"
           id="path11"
           style="fill:#eda04b;fill-opacity:1;stroke:#eda04b;stroke-width:0.35;stroke-opacity:1;stroke-miterlimit:4;stroke-dasharray:none"
           inkscape:connector-curvature="0" /><path
           d="m 13.630806,53.8 c 0.285093,0 0.516472,-0.231467 0.516472,-0.516667 0,-0.2852 -0.231379,-0.516666 -0.516472,-0.516666 l -7.2306114,0 c -0.2850926,0 -0.5164722,0.231466 -0.5164722,0.516666 0,0.2852 0.2313796,0.516667 0.5164722,0.516667 l 7.2306114,0 z"
           id="path13"
           style="fill:#eda04b;fill-opacity:1;stroke:#eda04b;stroke-width:0.35;stroke-opacity:1;stroke-miterlimit:4;stroke-dasharray:none"
           inkscape:connector-curvature="0" /><path
           d="m 1.7519445,30.033333 14.9776945,0 0,7.233334 7.230612,0 0,9.3 1.032944,0 0,-10.030567 L 17.459931,29 0.719,29 l 0,31 14.977695,0 0,-1.033333 -13.9447505,0 0,-28.933334 z m 16.0106395,0.730567 5.467375,5.469433 -5.467375,0 0,-5.469433 z"
           id="path15"
           style="fill:#eda04b;fill-opacity:1;stroke:#eda04b;stroke-width:0.35;stroke-opacity:1;stroke-miterlimit:4;stroke-dasharray:none"
           inkscape:connector-curvature="0" /><path
           sodipodi:nodetypes="cccccccccccsccccccccccccccscccc"
           d="m 30.513251,48.200367 -1.47143,-1.4725 c -0.582581,-0.5828 -1.597965,-0.5828 -2.180546,0 l -7.949024,7.9515 -1.095437,4.01915 -0.27115,0.994067 -0.0026,0.01033 0.01033,-0.0026 0.993692,-0.27125 4.017638,-1.09585 7.948508,-7.952017 c 0.29129,-0.2914 0.451913,-0.678384 0.451913,-1.090684 0,-0.4123 -0.160623,-0.799283 -0.451913,-1.090166 z m -10.408465,6.747667 5.290225,-5.292217 2.191391,2.192216 -5.290225,5.292217 z m -0.466375,0.994583 1.663041,1.663667 -2.286423,0.623616 z m 10.144548,-6.291967 -1.466265,1.466817 -2.191392,-2.192217 1.466265,-1.466817 c 0.192128,-0.1922 0.527318,-0.192716 0.719446,0 l 1.471946,1.4725 c 0.09606,0.0961 0.14926,0.223717 0.14926,0.3596 -5.16e-4,0.135884 -0.0532,0.264017 -0.14926,0.360117 z"
           id="path17"
           style="fill:#eda04b;fill-opacity:1;stroke:#eda04b;stroke-width:0.35;stroke-miterlimit:4;stroke-dasharray:none;stroke-opacity:1"
           inkscape:connector-curvature="0" /></g></g></g><g
     id="g19"
     transform="translate(0,-28)" /><g
     id="g21"
     transform="translate(0,-28)" /><g
     id="g23"
     transform="translate(0,-28)" /><g
     id="g25"
     transform="translate(0,-28)" /><g
     id="g27"
     transform="translate(0,-28)" /><g
     id="g29"
     transform="translate(0,-28)" /><g
     id="g31"
     transform="translate(0,-28)" /><g
     id="g33"
     transform="translate(0,-28)" /><g
     id="g35"
     transform="translate(0,-28)" /><g
     id="g37"
     transform="translate(0,-28)" /><g
     id="g39"
     transform="translate(0,-28)" /><g
     id="g41"
     transform="translate(0,-28)" /><g
     id="g43"
     transform="translate(0,-28)" /><g
     id="g45"
     transform="translate(0,-28)" /><g
     id="g47"
     transform="translate(0,-28)" /></svg>